# xmcd
#
# Track frame offsets: 
#        150
#        25100
#        54560
#        69042
#        97197
#        127037
#        153552
#        180437
#        208887
#        237415
#        266515
#        301657
#
# Disc length: 4361 seconds
#
# Revision: 7
# Processed by: cddbd v1.5.2PL0 Copyright (c) Steve Scherf et al.
# Submitted via: ExactAudioCopy v0.95b3
#
DISCID=a011070c
DTITLE=Various Artist - No Room for Squares II
DYEAR=1994
DGENRE=Jazz
TTITLE0=Don Wilkerson - Dem Tambourins
TTITLE1=Dexter Gordon - Cheese Cake
TTITLE2=Ike Quebec - Loie
TTITLE3=Stanley Turrentine - Sara's Dance
TTITLE4=Freddie Hubbard - Father And Son
TTITLE5=Harold Vick - Steppin' Out
TTITLE6=Herbie Hancock - Jack Rabbit
TTITLE7=Freddie Roach - On Our Way Up
TTITLE8=George Braith - Boop Bop Bing Bash
TTITLE9=Wayne Shorter - Black Nile
TTITLE10=Duke Pearson - ESP (Extrasensory Preception)
TTITLE11=Big John Patton - Each Time
EXTD=YEAR: 1994
EXTT0=
EXTT1=
EXTT2=
EXTT3=
EXTT4=
EXTT5=
EXTT6=
EXTT7=
EXTT8=
EXTT9=
EXTT10=
EXTT11=
PLAYORDER=
